<?xml version="1.0" encoding="utf-8"?>
<!-- Generator: Adobe Illustrator 28.0.0, SVG Export Plug-In . SVG Version: 6.00 Build 0)  -->
<svg version="1.1" id="Layer_1" xmlns="http://www.w3.org/2000/svg" xmlns:xlink="http://www.w3.org/1999/xlink" x="0px" y="0px"
	 viewBox="0 0 816.1 328.8" style="enable-background:new 0 0 816.1 328.8;" xml:space="preserve">
<style type="text/css">
	.st0{fill:#FFFFFF;}
	.st1{fill:#00A2AF;}
	.st2{fill:#00BBB4;}
	.st3{fill:#2ED9C3;}
	.st4{fill:#19D3C5;}
	.st5{fill:#AFE2E3;}
	.st6{fill:#6BDAD5;}
	.st7{fill:#0099A8;}
	.st8{fill:#00C4B3;}
	.st9{fill:#7B868C;}
</style>
<g>
	<g>
		<g>
			<g>
				<g>
					<path class="st0" d="M-0.3,97.8l25.1-24.6v12.6h21.3v12H24.7v34.3c0,7.7,3.2,11.6,9.6,11.6c4.8,0,9.8-1.6,15.2-4.8v12.5
						c-5.1,2.9-10.7,4.3-16.8,4.3c-6.1,0-11.2-1.8-15.2-5.4c-1.3-1.1-2.3-2.3-3.2-3.6c-0.8-1.3-1.5-3.1-2.1-5.3
						c-0.6-2.2-0.8-6.3-0.8-12.4V99.1H-0.3V97.8z"/>
					<path class="st0" d="M75.5,85.8v16.8l0.7-1.2C82.7,91,89.1,85.8,95.6,85.8c5,0,10.3,2.5,15.8,7.6l-7,11.7
						c-4.6-4.4-8.9-6.6-12.9-6.6c-4.3,0-8,2-11.2,6.2c-3.2,4.1-4.7,9-4.7,14.6v36.4H62.1V85.8H75.5z"/>
					<path class="st0" d="M167.2,155.7v-9.8c-2.8,3.1-6.1,5.5-9.7,7.2c-3.6,1.7-7.3,2.6-10.9,2.6c-4.3,0-8.2-1.1-11.8-3.2
						c-3.6-2.1-6.3-5-8.1-8.7c-1.8-3.6-2.8-9.7-2.8-18.1V85.8h13.3v39.8c0,7.1,1,12,3.1,14.8c2,2.8,5.6,4.2,10.7,4.2
						c6.4,0,11.8-3.1,16.2-9.3V85.8h13.3v69.9H167.2z"/>
					<path class="st0" d="M193.1,149.7v-14.4c3.8,2.6,7.6,4.8,11.5,6.4c3.9,1.6,7.2,2.5,9.9,2.5c2.8,0,5.2-0.7,7.2-2.1
						c2-1.4,3-3,3-4.9c0-2-0.6-3.6-1.9-4.9c-1.3-1.3-4.1-3.2-8.4-5.6c-8.6-4.8-14.2-8.9-16.9-12.3c-2.7-3.4-4-7.1-4-11.1
						c0-5.2,2-9.4,6-12.7c4-3.3,9.2-4.9,15.6-4.9c6.6,0,13.4,1.9,20.3,5.6v13.2c-7.9-4.8-14.4-7.2-19.4-7.2c-2.6,0-4.7,0.5-6.3,1.6
						c-1.6,1.1-2.4,2.6-2.4,4.4c0,1.6,0.7,3.1,2.2,4.5c1.4,1.4,4,3.1,7.6,5.1l4.8,2.7c11.2,6.4,16.9,13.4,16.9,21.1
						c0,5.5-2.2,10-6.5,13.6c-4.3,3.5-9.9,5.3-16.7,5.3c-4,0-7.6-0.4-10.7-1.3C201.8,153.5,197.8,152,193.1,149.7"/>
					<path class="st0" d="M239.7,97.8l25.1-24.6v12.6h21.3v12h-21.3v34.3c0,7.7,3.2,11.6,9.6,11.6c4.8,0,9.8-1.6,15.2-4.8v12.5
						c-5.1,2.9-10.7,4.3-16.8,4.3c-6.1,0-11.2-1.8-15.2-5.4c-1.3-1.1-2.3-2.3-3.2-3.6c-0.8-1.3-1.5-3.1-2.1-5.3
						c-0.6-2.2-0.8-6.3-0.8-12.4V99.1h-11.7V97.8z"/>
					<path class="st1" d="M348.6,114v28.7c0,2.3,0.8,3.4,2.4,3.4c1.6,0,4.1-1.2,7.6-3.6v8.1c-3,2-5.5,3.3-7.3,4
						c-1.8,0.7-3.8,1.1-5.8,1.1c-5.7,0-9.1-2.2-10.1-6.7c-5.7,4.4-11.7,6.6-18.1,6.6c-4.7,0-8.6-1.6-11.7-4.7
						c-3.1-3.1-4.7-7-4.7-11.7c0-4.2,1.5-8,4.6-11.4c3.1-3.4,7.4-6,13-8l17.1-5.9v-3.6c0-8.1-4.1-12.2-12.2-12.2
						c-7.3,0-14.4,3.8-21.2,11.3V94.9c5.2-6.1,12.6-9.2,22.4-9.2c7.3,0,13.1,1.9,17.5,5.7c1.5,1.2,2.8,2.8,4,4.9
						c1.2,2,1.9,4.1,2.2,6.1C348.5,104.5,348.6,108.3,348.6,114 M335.5,141.2v-20l-8.9,3.4c-4.5,1.8-7.8,3.6-9.6,5.5
						c-1.9,1.8-2.8,4.1-2.8,6.8c0,2.8,0.9,5.1,2.7,6.8c1.8,1.8,4.1,2.6,6.9,2.6C328,146.4,331.9,144.6,335.5,141.2"/>
					<path class="st1" d="M384.7,85.8v9.9c6-6.6,12.7-9.9,20.3-9.9c4.2,0,8.1,1.1,11.7,3.3c3.6,2.2,6.4,5.2,8.2,8.9
						c1.9,3.8,2.8,9.8,2.8,18v39.6h-13.3v-39.4c0-6.9-1.1-11.8-3.2-14.8c-2.1-3-5.6-4.4-10.5-4.4c-6.3,0-11.7,3.2-16.1,10.5v48.2
						h-13.6V85.8H384.7z"/>
					<path class="st1" d="M440.4,109.4c0-7.3,2.6-13,7.9-17.3c5.3-4.2,12.4-6.3,21.5-6.3h27.8v10.5H484c2.6,2.7,4.5,5.2,5.5,7.4
						c1,2.2,1.5,4.8,1.5,7.6c0,3.6-1,7.1-3,10.5c-2,3.4-4.6,6.1-7.7,7.9c-3.2,1.8-8.3,3.3-15.5,4.4c-5,0.7-7.6,2.5-7.6,5.3
						c0,1.6,0.9,2.9,2.8,3.9c1.9,1,5.3,2.1,10.2,3.1c8.3,1.8,13.6,3.3,15.9,4.3c2.4,1,4.5,2.5,6.4,4.5c3.2,3.3,4.8,7.4,4.8,12.3
						c0,6.5-2.8,11.7-8.5,15.5c-5.7,3.9-13.3,5.8-22.8,5.8c-9.6,0-17.3-2-23-5.8c-5.7-3.9-8.6-9.1-8.6-15.6
						c0-9.2,5.7-15.2,16.9-17.9c-4.5-2.9-6.7-5.8-6.7-8.7c0-2.2,1-4.2,2.9-5.9c1.9-1.8,4.5-3.1,7.8-3.9
						C445.4,126.5,440.4,119.3,440.4,109.4 M462.4,157.3c-4.5,0-8.2,1-11,2.9c-2.9,1.9-4.3,4.4-4.3,7.4c0,7,6.3,10.5,18.8,10.5
						c5.9,0,10.5-0.9,13.7-2.6c3.2-1.8,4.9-4.2,4.9-7.5c0-3.2-2.1-5.8-6.2-7.8C474.2,158.3,468.9,157.3,462.4,157.3 M465.5,97.5
						c-3.6,0-6.7,1.2-9.2,3.7c-2.5,2.5-3.8,5.5-3.8,8.9c0,3.5,1.3,6.4,3.7,8.7c2.5,2.3,5.6,3.5,9.4,3.5c3.8,0,6.9-1.2,9.4-3.5
						c2.5-2.4,3.8-5.3,3.8-8.8c0-3.6-1.3-6.5-3.8-8.9C472.5,98.7,469.3,97.5,465.5,97.5"/>
					<rect x="510.2" y="52.1" class="st1" width="13.3" height="103.4"/>
					<path class="st1" d="M580,142.2c5.6-1.2,10.9-3.7,16-7.3v13.1c-4.1,2.7-8.2,4.7-12.2,5.9c-4,1.2-8.7,1.8-14.2,1.8
						c-7.4,0-13.4-1.5-18-4.6c-4.6-3.1-8.3-7.2-11-12.4c-2.8-5.2-4.1-11.2-4.1-18.1c0-10.3,2.9-18.6,8.7-25
						c5.8-6.4,13.4-9.6,22.6-9.6c8.9,0,16.1,3.1,21.4,9.4c5.3,6.3,8,14.6,8,25.1v1.7h-47.4c0.3,6.4,2.5,11.6,6.5,15.4
						c4,3.8,9.1,5.7,15.4,5.7C574.5,143.1,577.3,142.8,580,142.2 M550,114H584c-0.3-5.3-1.9-9.4-4.8-12.3c-2.8-2.9-6.6-4.3-11.4-4.3
						s-8.7,1.4-11.8,4.3C552.9,104.6,550.9,108.7,550,114"/>
					<path class="st0" d="M387.1,217.1v3.2c-3.3-1.9-6.1-2.9-8.4-2.9c-2.3,0-4.2,0.7-5.7,2.1s-2.3,3.1-2.3,5.1
						c0,1.5,0.4,2.8,1.3,3.9c0.9,1.2,2.8,2.3,5.6,3.4c2.9,1.1,4.9,2,6.2,2.7c1.3,0.7,2.4,1.8,3.3,3.1c0.9,1.4,1.4,3.1,1.4,5.3
						c0,2.9-1.1,5.3-3.2,7.3c-2.1,2-4.7,3-7.8,3c-3.1,0-6.3-1.1-9.6-3.3v-3.4c3.6,2.7,6.8,4,9.5,4c2.2,0,4.1-0.7,5.6-2.2
						s2.3-3.2,2.3-5.3c0-1.6-0.5-3-1.4-4.3c-1-1.3-2.9-2.5-5.8-3.6c-2.9-1.1-5-2-6.2-2.7c-1.2-0.7-2.3-1.7-3.2-2.9
						c-0.9-1.3-1.3-2.9-1.3-4.9c0-2.8,1.1-5.1,3.2-7.1c2.1-1.9,4.7-2.9,7.6-2.9C381.3,214.7,384.2,215.5,387.1,217.1z"/>
					<path class="st0" d="M403.9,214.7v17.6h0.1c2.1-3.2,4.8-4.8,8.2-4.8c2.8,0,5,0.9,6.7,2.7c1.7,1.8,2.5,4.3,2.5,7.4v15.7h-2.6
						v-14.6c0-5.7-2.2-8.6-6.7-8.6c-3.2,0-5.9,1.8-8.1,5.3v17.9h-2.6v-38.6H403.9z"/>
					<path class="st0" d="M436.6,214.7v4.5h-2.7v-4.5H436.6z M436.6,227.6v25.8h-2.7v-25.8H436.6z"/>
					<path class="st0" d="M466.8,215.8v2.5c-1.8-0.6-3.3-0.9-4.5-0.9c-4,0-6,2.6-6,7.7v2.6h4.8v2.2h-4.8v23.6h-2.6v-23.6h-4.6v-2.2
						h4.6V224c0-2.9,0.8-5.1,2.5-6.8c1.7-1.7,3.7-2.5,6.1-2.5C463.6,214.7,465.1,215.1,466.8,215.8z"/>
					<path class="st0" d="M482.8,219.8v7.7h6.9v2.2h-6.9v15.2c0,2.4,0.2,3.9,0.6,4.7c0.4,0.7,1.4,1.1,3.1,1.1c1.3,0,2.8-0.4,4.5-1.2
						v2.5c-1.7,0.8-3.4,1.3-5.1,1.3c-1.6,0-3-0.5-4.1-1.4s-1.6-2.2-1.6-3.9v-18.3h-6.7v-2.2h6.7v-5.4l1.8-2.3H482.8z"/>
					<path class="st0" d="M506.2,214.7v4.5h-2.7v-4.5H506.2z M506.2,227.6v25.7h-2.7v-25.7H506.2z"/>
					<path class="st0" d="M521.4,227.6v4.8h0.1c2.1-3.2,4.8-4.8,8.2-4.8c2.8,0,5,0.9,6.7,2.7c1.7,1.8,2.5,4.3,2.5,7.5v15.6h-2.6
						v-14.6c0-5.7-2.2-8.6-6.7-8.6c-3.3,0-6,1.8-8.1,5.3v17.9h-2.6v-25.7H521.4z"/>
					<path class="st0" d="M572,228v2.2h-5.6c2.3,2.1,3.4,4.3,3.4,6.6c0,2.1-0.4,3.7-1.3,4.9c-0.9,1.2-1.9,2.1-3.2,2.6
						c-1.2,0.5-2.9,1.1-4.9,1.6s-3.3,1-3.9,1.5c-0.5,0.5-0.8,1-0.8,1.6c0,0.7,0.3,1.3,1,1.7c0.7,0.4,2.8,0.7,6.3,0.9
						c3.5,0.2,5.9,0.9,7.1,2c1.2,1.1,1.8,2.7,1.8,4.6c0,2.2-1,4-2.9,5.3s-4.7,1.9-8.2,1.9c-3.5,0-6.1-0.6-8-1.8
						c-1.9-1.2-2.8-2.8-2.8-4.8c0-3.2,2.4-5.2,7.2-6v-0.1c-2.7-0.6-4-1.8-4-3.5c0-1.7,1.7-3.1,5-4v-0.1c-2.2-0.6-3.8-1.7-4.9-3.2
						c-1.1-1.5-1.7-3.2-1.7-5c0-2.6,0.9-4.7,2.7-6.4c1.8-1.6,4.4-2.5,7.8-2.5H572z M561,263.3c2.6,0,4.6-0.4,6.1-1.3
						c1.5-0.9,2.3-2,2.3-3.5c0-2.9-2.6-4.4-7.9-4.4c-6,0-9,1.5-9,4.6C552.5,261.8,555.3,263.3,561,263.3z M560.6,243.5
						c1.8,0,3.4-0.7,4.7-2c1.3-1.3,2-2.9,2-4.7s-0.7-3.4-2-4.6c-1.3-1.3-2.9-1.9-4.7-1.9c-1.8,0-3.4,0.6-4.6,1.9
						c-1.3,1.3-1.9,2.8-1.9,4.6c0,1.9,0.6,3.5,1.9,4.8C557.2,242.8,558.8,243.5,560.6,243.5z"/>
					<path class="st0" d="M54,214.7v2.4H39.9v36.2H37v-36.2H22.9v-2.4H54z"/>
					<path class="st0" d="M80.8,239.5H61.3c-0.1,0.4-0.1,0.9-0.1,1.3c0,2.8,1,5.1,3,7c2,1.9,4.3,2.9,7,2.9c3.1,0,6.2-1.2,9.2-3.7v3
						c-2.8,2.2-6,3.3-9.5,3.3c-3.6,0-6.5-1.2-8.9-3.7c-2.3-2.5-3.5-5.6-3.5-9.5c0-3.6,1.1-6.6,3.2-9s4.9-3.6,8.1-3.6
						c3.1,0,5.7,1.1,7.8,3.2C79.8,232.9,80.8,235.8,80.8,239.5z M61.7,237.4h16.1c-0.9-4.8-3.5-7.2-7.8-7.2c-2,0-3.8,0.6-5.3,1.9
						C63.1,233.3,62.2,235.1,61.7,237.4z"/>
					<path class="st0" d="M112.1,228.8v2.9c-2.4-1-4.5-1.6-6.4-1.6c-2.8,0-5,1-6.7,2.9c-1.7,1.9-2.6,4.4-2.6,7.5
						c0,3.1,0.9,5.6,2.6,7.4c1.7,1.8,4.1,2.8,7,2.8c2.1,0,4.3-0.5,6.7-1.4v2.7c-2.5,0.8-4.8,1.3-6.9,1.3c-3.6,0-6.6-1.1-8.8-3.4
						c-2.2-2.3-3.4-5.3-3.4-9c0-3.9,1.1-7.1,3.4-9.5c2.3-2.5,5.1-3.7,8.6-3.7C107.4,227.6,109.6,228,112.1,228.8z"/>
					<path class="st0" d="M127.7,215.2v17.2h0.1c2.1-3.2,4.8-4.8,8.2-4.8c2.8,0,5,0.9,6.7,2.7c1.7,1.8,2.5,4.3,2.5,7.4v15.6h-2.6
						v-14.6c0-5.7-2.2-8.6-6.7-8.6c-3.2,0-5.9,1.8-8.1,5.3v17.9h-2.6v-38.1H127.7z"/>
					<path class="st0" d="M160.4,227.6v4.8h0.1c2.1-3.2,4.8-4.8,8.2-4.8c2.8,0,5,0.9,6.7,2.7c1.7,1.8,2.5,4.3,2.5,7.5v15.6h-2.6
						v-14.6c0-5.7-2.2-8.6-6.7-8.6c-3.3,0-6,1.8-8.1,5.3v17.9h-2.6v-25.7H160.4z"/>
					<path class="st0" d="M203.1,227.6c3.6,0,6.6,1.2,9,3.7c2.4,2.5,3.6,5.5,3.6,9.2c0,3.7-1.2,6.7-3.6,9.2c-2.4,2.5-5.4,3.7-9,3.7
						c-3.6,0-6.6-1.2-9-3.7c-2.4-2.5-3.6-5.5-3.6-9.2c0-3.7,1.2-6.8,3.6-9.2C196.5,228.8,199.5,227.6,203.1,227.6z M203.1,250.7
						c2.8,0,5.1-1,7-2.9c1.9-1.9,2.8-4.4,2.8-7.3c0-2.9-0.9-5.4-2.8-7.4c-1.9-2-4.2-3-7-3c-2.8,0-5.1,1-7,2.9
						c-1.9,2-2.8,4.4-2.8,7.4c0,2.9,0.9,5.4,2.8,7.3C198,249.7,200.3,250.7,203.1,250.7z"/>
					<path class="st0" d="M230.9,214.7v38.6h-2.7v-38.6H230.9z"/>
					<path class="st0" d="M256.2,227.6c3.6,0,6.6,1.2,9,3.7c2.4,2.5,3.6,5.5,3.6,9.2c0,3.7-1.2,6.7-3.6,9.2c-2.4,2.5-5.4,3.7-9,3.7
						c-3.6,0-6.6-1.2-9-3.7c-2.4-2.5-3.6-5.5-3.6-9.2c0-3.7,1.2-6.8,3.6-9.2C249.6,228.8,252.6,227.6,256.2,227.6z M256.2,250.7
						c2.8,0,5.1-1,7-2.9c1.9-1.9,2.8-4.4,2.8-7.3c0-2.9-0.9-5.4-2.8-7.4c-1.9-2-4.2-3-7-3c-2.8,0-5.1,1-7,2.9
						c-1.9,2-2.8,4.4-2.8,7.4c0,2.9,0.9,5.4,2.8,7.3C251,249.7,253.4,250.7,256.2,250.7z"/>
					<path class="st0" d="M302,227.6v2.2h-5.7c2.3,2.1,3.5,4.3,3.5,6.7c0,2.1-0.4,3.7-1.4,5c-0.9,1.2-2,2.1-3.2,2.7
						c-1.2,0.6-2.9,1.1-5,1.6c-2.1,0.5-3.4,1-3.9,1.5c-0.5,0.5-0.8,1-0.8,1.6c0,0.7,0.3,1.3,1,1.7c0.7,0.4,2.8,0.8,6.4,1
						c3.6,0.2,6,0.9,7.2,2c1.2,1.2,1.9,2.7,1.9,4.6c0,2.3-1,4.1-3,5.4s-4.7,2-8.3,2c-3.5,0-6.2-0.6-8.1-1.8
						c-1.9-1.2-2.9-2.9-2.9-4.9c0-3.3,2.4-5.3,7.3-6.1v-0.1c-2.7-0.6-4.1-1.8-4.1-3.6c0-1.8,1.7-3.1,5-4.1v-0.1
						c-2.2-0.7-3.9-1.7-5-3.3c-1.1-1.5-1.7-3.2-1.7-5.1c0-2.6,0.9-4.8,2.8-6.5c1.8-1.7,4.5-2.5,7.9-2.5H302z M290.9,263.3
						c2.6,0,4.7-0.4,6.2-1.3c1.5-0.9,2.3-2.1,2.3-3.5c0-2.9-2.7-4.4-8-4.4c-6.1,0-9.1,1.5-9.1,4.6
						C282.3,261.7,285.1,263.3,290.9,263.3z M290.5,243.2c1.8,0,3.4-0.7,4.7-2c1.3-1.3,2-2.9,2-4.7c0-1.8-0.7-3.4-2-4.7
						c-1.3-1.3-2.9-2-4.8-2c-1.9,0-3.4,0.6-4.7,1.9c-1.3,1.3-1.9,2.8-1.9,4.6c0,1.9,0.6,3.5,1.9,4.8S288.6,243.2,290.5,243.2z"/>
					<path class="st0" d="M338.2,227.6l-18.8,37.9h-2.7l8.7-17.5l-10.7-20.4h2.8l9.3,17.8l8.8-17.8H338.2z"/>
					<g>
						<polygon class="st2" points="666.7,11 669.9,32.2 718.5,64 						"/>
						<polygon class="st3" points="637,11 669.9,32.2 666.7,11 						"/>
						<path class="st4" d="M669.9,32.2c0,0,5.1,41.3,5.9,41.8s58.1,47.2,58.1,47.2l13.8-26.9L718.5,64L669.9,32.2z"/>
						<polygon class="st5" points="635.5,10.7 621.6,32.2 643.9,54.9 650.8,40.9 						"/>
						<polygon class="st3" points="650.8,40.9 643.9,54.9 672,83 						"/>
						<polygon class="st5" points="643.9,54.9 635.3,72.2 649.2,113.2 671.2,120.3 674.4,88.4 672,83 						"/>
						<polygon class="st3" points="674.4,88.4 671.2,120.3 694.4,127.9 						"/>
						<polygon class="st6" points="675.9,74 661.2,62 679.8,98.8 						"/>
						<polygon class="st2" points="734,121.2 712.9,164.6 679.8,98.8 675.9,74 						"/>
						<polygon class="st2" points="712.9,164.6 788,164.6 755.2,138 						"/>
						<polygon class="st6" points="734,121.2 755.2,138 712.9,164.6 						"/>
						<polygon class="st5" points="671.2,120.3 694.4,127.9 712.9,164.6 669.4,137.4 						"/>
						<polygon class="st5" points="654.2,127.9 666.7,164.6 669.4,137.4 						"/>
						<polygon class="st3" points="712.9,164.6 666.7,164.6 669.4,137.4 						"/>
						<polygon class="st6" points="776.9,124.2 755.2,138 788,164.6 747.8,164.6 748.9,176.6 790.5,190.4 816.1,164.6 						"/>
						<polygon class="st7" points="753.8,228.3 790.5,190.4 748.9,176.6 						"/>
						<polygon class="st6" points="712.9,164.6 753.8,228.3 748.9,176.6 						"/>
						<polygon class="st6" points="712.9,164.6 688.2,213.6 686.9,193.2 						"/>
						<path class="st6" d="M664.3,260.9c-0.1-0.2-42.7,36.1-42.7,36.1l17.4-51.2l15.2-16.7L664.3,260.9z"/>
						<polygon class="st8" points="664.3,260.9 635.5,318.5 621.6,297 						"/>
						<polygon class="st2" points="688.2,213.6 677.6,264.7 660,269.4 						"/>
						<polygon class="st6" points="644.7,318.2 666.7,318.2 671.2,297.9 						"/>
						<polygon class="st6" points="677.6,264.7 671.2,297.9 733.3,249.5 						"/>
						<polygon class="st7" points="753.8,228.3 733.3,249.5 677.6,264.7 688.2,213.6 712.9,164.6 						"/>
						<polygon class="st2" points="666.7,318.2 671.2,297.9 733.3,249.5 						"/>
						<polygon class="st8" points="686.9,193.2 685,164.6 712.9,164.6 						"/>
						<polygon class="st8" points="654.2,229.1 649.2,215.8 639,245.7 						"/>
						<polygon class="st9" points="666.7,164.6 712.9,164.6 639,245.7 						"/>
					</g>
				</g>
			</g>
		</g>
	</g>
	<g>
		<path class="st0" d="M799,10.7c3,0,5.9,0.8,8.5,2.3c2.6,1.5,4.7,3.6,6.3,6.3c1.5,2.6,2.3,5.5,2.3,8.5c0,3.1-0.8,5.9-2.3,8.5
			c-1.5,2.6-3.6,4.7-6.3,6.2c-2.6,1.5-5.5,2.3-8.6,2.3c-3.1,0-5.9-0.8-8.6-2.3c-2.6-1.5-4.7-3.6-6.3-6.2c-1.5-2.6-2.3-5.5-2.3-8.6
			c0-3.1,0.8-5.9,2.3-8.5c1.5-2.6,3.6-4.7,6.3-6.2C793.1,11.4,795.9,10.7,799,10.7z M799,13.5c-3.9,0-7.3,1.4-10.1,4.2
			c-2.8,2.8-4.2,6.1-4.2,10.1c0,3.9,1.4,7.3,4.2,10.1c2.8,2.8,6.1,4.2,10.1,4.2c3.9,0,7.3-1.4,10.1-4.2c2.8-2.8,4.2-6.1,4.2-10.1
			c0-3.9-1.4-7.3-4.2-10.1C806.2,14.9,802.9,13.5,799,13.5z M795.1,36.9h-3V18.6h6.4c2.3,0,3.8,0.2,4.8,0.5s1.7,0.9,2.2,1.8
			s0.8,1.7,0.8,2.6c0,1.4-0.5,2.6-1.5,3.6c-1,1-2.2,1.5-3.8,1.6c0.7,0.3,1.3,0.8,2,1.4c0.6,0.7,1.4,1.7,2.3,3.2l2.2,3.6H804
			l-1.6-2.9c-1.2-2.1-2.1-3.4-2.8-4c-0.7-0.6-1.6-0.9-2.7-0.9h-1.8V36.9z M795.1,21v5.5h3.6c1.5,0,2.7-0.2,3.4-0.7
			c0.7-0.4,1.1-1.2,1.1-2.1c0-1-0.3-1.7-1-2.1c-0.7-0.4-1.9-0.6-3.6-0.6H795.1z"/>
	</g>
</g>
</svg>
